<svg width="77" height="137" viewBox="0 0 77 137" fill="none" xmlns="http://www.w3.org/2000/svg">
<rect x="2" y="13" width="73" height="122" rx="18" stroke="#8994A3" stroke-width="4"/>
<rect x="8" y="104" width="61" height="24" rx="12" fill="#46AEF5"/>
<rect x="8" y="76" width="61" height="24" rx="12" fill="#46AEF5"/>
<rect x="8" y="48" width="61" height="24" rx="12" fill="#46AEF5"/>
<rect x="8" y="20" width="61" height="24" rx="12" fill="#46AEF5"/>
<path d="M50 11.5C50 9.9898 49.7025 8.49438 49.1246 7.09914C48.5467 5.7039 47.6996 4.43615 46.6317 3.36827C45.5639 2.3004 44.2961 1.45331 42.9009 0.875385C41.5056 0.297456 40.0102 -6.6013e-08 38.5 0C36.9898 6.6013e-08 35.4944 0.297456 34.0991 0.875386C32.7039 1.45331 31.4361 2.3004 30.3683 3.36827C29.3004 4.43615 28.4533 5.7039 27.8754 7.09914C27.2975 8.49439 27 9.9898 27 11.5L38.5 11.5H50Z" fill="#8994A3"/>
</svg>
